<?xml version="1.0" encoding="UTF-8"?>
<!DOCTYPE svg PUBLIC "-//W3C//DTD SVG 1.1//EN" "http://www.w3.org/Graphics/SVG/1.1/DTD/svg11.dtd">
<!-- Creator: CorelDRAW X7 -->
<svg xmlns="http://www.w3.org/2000/svg" xml:space="preserve" width="472px" height="472px" version="1.1" style="shape-rendering:geometricPrecision; text-rendering:geometricPrecision; image-rendering:optimizeQuality; fill-rule:evenodd; clip-rule:evenodd"
viewBox="0 0 472 472"
 xmlns:xlink="http://www.w3.org/1999/xlink">
 <defs>
  <style type="text/css">
   <![CDATA[
    .fil0 {fill:#FEFEFE}
   ]]>
  </style>
 </defs>
 <g id="Capa_x0020_1">
  <metadata id="CorelCorpID_0Corel-Layer"/>
  <g id="_437062992">
   <path class="fil0" d="M198 98c77,0 139,44 139,99 0,55 -62,100 -139,100 -14,0 -28,-2 -40,-4 -18,23 -48,34 -82,32 26,-24 33,-41 35,-50 -33,-18 -53,-46 -53,-78 0,-55 62,-99 140,-99zm0 24c58,0 105,33 105,75 0,42 -47,76 -105,76 -59,0 -106,-34 -106,-76 0,-42 47,-75 106,-75z"/>
   <path class="fil0" d="M177 318c25,17 60,28 97,28 14,0 28,-1 40,-4 18,24 48,34 82,32 -26,-23 -33,-41 -35,-50 33,-18 53,-46 53,-77 0,-35 -25,-66 -63,-84 4,12 6,24 6,36 0,67 -66,122 -149,122 -11,0 -21,-1 -31,-3z"/>
  </g>
 </g>
</svg>
