<?xml version="1.0" encoding="UTF-8"?>
<!DOCTYPE svg PUBLIC "-//W3C//DTD SVG 1.1//EN" "http://www.w3.org/Graphics/SVG/1.1/DTD/svg11.dtd">
<!-- Creator: CorelDRAW X7 -->
<svg xmlns="http://www.w3.org/2000/svg" xml:space="preserve" width="1890px" height="1004px" version="1.1" style="shape-rendering:geometricPrecision; text-rendering:geometricPrecision; image-rendering:optimizeQuality; fill-rule:evenodd; clip-rule:evenodd"
viewBox="0 0 1890 1004"
 xmlns:xlink="http://www.w3.org/1999/xlink">
 <defs>
  <style type="text/css">
   <![CDATA[
    .fil4 {fill:#FEFEFE}
    .fil0 {fill:#FBB12F}
    .fil1 {fill:#ED3237}
    .fil2 {fill:#FEFEFE;fill-rule:nonzero}
    .fil3 {fill:url(#id0)}
   ]]>
  </style>
  <linearGradient id="id0" gradientUnits="userSpaceOnUse" x1="163.113" y1="831.383" x2="420.696" y2="574.881">
   <stop offset="0" style="stop-opacity:1; stop-color:#D86833"/>
   <stop offset="1" style="stop-opacity:0; stop-color:#FBB12F"/>
  </linearGradient>
 </defs>
 <g id="Capa_x0020_1">
  <metadata id="CorelCorpID_0Corel-Layer"/>
  <g id="_432425336">
   <path class="fil0" d="M342 313l0 0c188,0 341,154 341,341l0 0c0,94 -38,179 -100,241l0 0 -479 -484 0 -1c62,-60 146,-97 238,-97zm241 582c-62,62 -147,101 -241,101l0 0c-188,0 -341,-154 -341,-342l0 0c0,-95 39,-181 103,-243l479 484z"/>
   <path class="fil1" d="M671 8l1062 0c86,0 157,71 157,157l0 0c0,87 -71,157 -157,157l-960 0c-23,36 -64,55 -112,57 21,-23 32,-42 37,-57l-27 0c-87,0 -157,-70 -157,-157l0 0c0,-86 70,-157 157,-157z"/>
   <path class="fil2" d="M638 140l0 14 -12 0 0 -14 12 0zm-12 19l12 0c0,2 0,3 0,3 0,4 -1,7 -2,10 -2,2 -4,5 -8,9 -4,3 -7,5 -8,7 0,1 -1,2 -1,4 0,2 1,5 3,7 3,1 5,2 9,2 3,0 6,-1 8,-3 3,-1 4,-4 5,-9l13 2c-1,4 -2,7 -4,10 -2,4 -5,6 -9,8 -4,2 -8,3 -13,3 -7,0 -13,-2 -18,-6 -5,-4 -7,-9 -7,-14 0,-3 0,-5 1,-6 1,-2 2,-4 4,-6 2,-2 5,-5 8,-8 3,-2 5,-4 6,-6 0,-1 1,-4 1,-7zm58 33l0 -59 -20 0 0 -12 55 0 0 12 -20 0 0 59 -15 0zm43 -58l0 -13 13 0 0 13 -13 0zm0 58l0 -52 13 0 0 52 -13 0zm57 -17l13 3c-1,5 -4,8 -8,11 -4,2 -8,4 -14,4 -9,0 -15,-3 -20,-9 -3,-5 -5,-10 -5,-18 0,-8 2,-15 7,-19 4,-5 10,-8 17,-8 7,0 13,3 18,8 4,5 6,13 6,23l-34 0c0,4 1,7 3,9 2,3 5,4 8,4 2,0 4,-1 5,-2 2,-1 3,-3 4,-6zm1 -13c-1,-4 -2,-7 -3,-9 -2,-2 -5,-3 -7,-3 -3,0 -6,1 -8,3 -2,2 -3,5 -3,9l21 0zm70 30l-13 0 0 -27c0,-5 0,-9 -1,-10 0,-2 -1,-3 -3,-4 -1,-1 -3,-1 -4,-1 -3,0 -5,0 -7,2 -2,1 -3,3 -4,5 0,2 -1,6 -1,11l0 24 -13 0 0 -52 12 0 0 8c5,-6 10,-9 17,-9 3,0 6,1 8,2 3,1 5,2 6,4 1,2 2,4 3,6 0,2 0,5 0,9l0 32zm44 -17l13 3c-2,5 -4,8 -8,11 -4,2 -8,4 -14,4 -9,0 -15,-3 -20,-9 -3,-5 -5,-10 -5,-18 0,-8 2,-15 7,-19 4,-5 10,-8 17,-8 7,0 13,3 18,8 4,5 6,13 6,23l-34 0c0,4 1,7 3,9 2,3 5,4 8,4 2,0 4,-1 5,-2 2,-1 3,-3 4,-6zm0 -13c0,-4 -1,-7 -3,-9 -1,-2 -4,-3 -7,-3 -2,0 -5,1 -7,3 -2,2 -3,5 -3,9l20 0zm20 15l14 -2c0,3 1,5 3,6 2,1 4,2 8,2 3,0 6,-1 7,-2 2,-1 2,-2 2,-4 0,-1 0,-1 -1,-2 0,-1 -2,-1 -4,-2 -11,-2 -18,-4 -21,-6 -4,-3 -6,-7 -6,-12 0,-4 2,-8 5,-11 4,-3 9,-5 16,-5 7,0 13,1 16,4 3,2 6,5 7,10l-13 2c0,-2 -1,-3 -3,-4 -1,-1 -3,-2 -6,-2 -4,0 -6,1 -8,2 -1,0 -2,1 -2,2 0,1 1,2 2,3 1,1 5,2 12,4 8,1 13,3 16,6 2,2 4,5 4,10 0,4 -2,8 -6,12 -4,3 -10,5 -17,5 -7,0 -13,-2 -17,-4 -4,-3 -7,-7 -8,-12zm97 -21l-12 -2c1,-5 4,-9 7,-11 3,-2 8,-4 15,-4 6,0 11,1 13,2 3,2 6,4 7,6 1,2 2,6 2,12l-1 16c0,4 1,8 1,10 0,2 1,4 2,7l-13 0c0,-1 -1,-3 -1,-4 -1,-1 -1,-2 -1,-2 -2,2 -5,4 -7,5 -3,1 -6,2 -9,2 -5,0 -9,-2 -12,-4 -3,-3 -4,-7 -4,-11 0,-3 0,-6 2,-8 1,-2 3,-4 5,-5 3,-1 6,-2 11,-3 6,-2 11,-3 13,-4l0 -1c0,-3 0,-5 -2,-6 -1,-1 -3,-1 -7,-1 -2,0 -4,0 -6,1 -1,1 -2,3 -3,5zm18 11c-2,1 -4,1 -8,2 -4,1 -6,2 -7,3 -2,1 -3,2 -3,4 0,2 1,4 2,5 2,2 3,2 6,2 2,0 4,-1 6,-2 2,-1 3,-3 4,-5 0,-1 0,-3 0,-6l0 -3zm27 25l0 -71 13 0 0 71 -13 0zm26 3l15 2c1,1 1,3 2,3 1,1 3,2 6,2 4,0 6,-1 8,-2 1,0 2,-2 3,-3 0,-1 0,-3 0,-6l1 -8c-5,6 -10,9 -16,9 -7,0 -12,-3 -16,-9 -3,-5 -5,-10 -5,-17 0,-9 2,-15 6,-20 4,-4 10,-7 16,-7 6,0 11,3 15,9l0 -8 13 0 0 46c0,6 -1,11 -2,14 -1,3 -2,5 -4,7 -1,1 -4,3 -7,4 -3,1 -7,1 -11,1 -9,0 -15,-1 -19,-4 -3,-3 -5,-7 -5,-12 0,0 0,-1 0,-1zm12 -30c0,5 1,9 3,12 2,2 5,4 8,4 3,0 6,-2 8,-4 3,-3 4,-7 4,-12 0,-5 -1,-9 -4,-12 -2,-2 -5,-3 -8,-3 -3,0 -6,1 -8,3 -2,3 -3,7 -3,12zm83 27l0 -8c-2,3 -4,5 -7,6 -3,2 -6,3 -10,3 -3,0 -6,-1 -9,-2 -3,-2 -5,-4 -6,-7 -1,-3 -2,-6 -2,-11l0 -33 14 0 0 24c0,7 0,12 0,13 1,2 2,3 3,4 1,1 3,1 5,1 2,0 5,0 6,-1 2,-2 3,-3 4,-5 1,-2 1,-7 1,-14l0 -22 14 0 0 52 -13 0zm73 0l-14 0 0 -27c0,-5 0,-9 0,-10 -1,-2 -2,-3 -3,-4 -2,-1 -3,-1 -5,-1 -2,0 -4,0 -6,2 -2,1 -3,3 -4,5 -1,2 -1,6 -1,11l0 24 -14 0 0 -52 13 0 0 8c4,-6 10,-9 17,-9 3,0 5,1 8,2 2,1 4,2 6,4 1,2 2,4 2,6 1,2 1,5 1,9l0 32zm24 -36l-13 -2c2,-5 4,-9 8,-11 3,-2 8,-4 15,-4 6,0 10,1 13,2 3,2 5,4 6,6 2,2 2,6 2,12l0 16c0,4 0,8 1,10 0,2 1,4 2,7l-13 0c-1,-1 -1,-3 -2,-4 0,-1 0,-2 0,-2 -2,2 -5,4 -8,5 -2,1 -5,2 -8,2 -5,0 -9,-2 -12,-4 -3,-3 -5,-7 -5,-11 0,-3 1,-6 2,-8 2,-2 3,-4 6,-5 2,-1 6,-2 11,-3 6,-2 10,-3 13,-4l0 -1c0,-3 -1,-5 -2,-6 -1,-1 -4,-1 -7,-1 -3,0 -5,0 -6,1 -1,1 -2,3 -3,5zm18 11c-2,1 -5,1 -8,2 -4,1 -7,2 -8,3 -2,1 -2,2 -2,4 0,2 0,4 2,5 1,2 3,2 5,2 3,0 5,-1 7,-2 2,-1 3,-3 3,-5 1,-1 1,-3 1,-6l0 -3zm98 -11l-13 2c0,-3 -1,-5 -3,-6 -2,-1 -4,-2 -6,-2 -4,0 -6,1 -8,3 -2,3 -3,7 -3,12 0,6 1,10 3,13 2,3 5,4 8,4 3,0 5,-1 6,-2 2,-2 3,-4 4,-8l13 2c-1,6 -4,11 -8,14 -4,3 -9,5 -16,5 -7,0 -13,-3 -17,-7 -5,-5 -7,-12 -7,-20 0,-8 2,-15 7,-20 4,-4 10,-7 18,-7 6,0 11,2 14,4 4,3 7,7 8,13zm7 9c0,-4 2,-9 4,-13 2,-4 5,-7 9,-9 4,-3 9,-4 14,-4 7,0 14,3 19,8 5,5 7,11 7,19 0,8 -2,14 -7,19 -5,5 -12,8 -19,8 -5,0 -9,-1 -14,-3 -4,-3 -7,-6 -9,-10 -2,-4 -4,-9 -4,-15zm14 1c0,5 2,9 4,12 2,2 5,4 9,4 3,0 6,-2 9,-4 2,-3 3,-7 3,-12 0,-5 -1,-9 -3,-12 -3,-2 -6,-4 -9,-4 -4,0 -7,2 -9,4 -2,3 -4,7 -4,12zm96 26l-13 0 0 -27c0,-5 -1,-9 -1,-10 -1,-2 -2,-3 -3,-4 -1,-1 -3,-1 -5,-1 -2,0 -4,0 -6,2 -2,1 -3,3 -4,5 -1,2 -1,6 -1,11l0 24 -13 0 0 -52 12 0 0 8c5,-6 10,-9 17,-9 3,0 6,1 8,2 3,1 5,2 6,4 1,2 2,4 2,6 1,2 1,5 1,9l0 32zm9 -15l14 -2c0,3 1,5 3,6 2,1 4,2 8,2 3,0 6,-1 7,-2 2,-1 2,-2 2,-4 0,-1 0,-1 -1,-2 0,-1 -2,-1 -4,-2 -11,-2 -18,-4 -21,-6 -4,-3 -6,-7 -6,-12 0,-4 2,-8 5,-11 4,-3 9,-5 16,-5 7,0 13,1 16,4 3,2 6,5 7,10l-13 2c0,-2 -1,-3 -3,-4 -1,-1 -3,-2 -6,-2 -4,0 -6,1 -8,2 -1,0 -2,1 -2,2 0,1 1,2 2,3 1,1 5,2 12,4 8,1 13,3 16,6 2,2 4,5 4,10 0,4 -2,8 -6,12 -4,3 -10,5 -17,5 -7,0 -13,-2 -17,-4 -4,-3 -7,-7 -8,-12zm93 15l0 -8c-1,3 -4,5 -7,6 -3,2 -6,3 -10,3 -3,0 -6,-1 -9,-2 -3,-2 -4,-4 -6,-7 -1,-3 -2,-6 -2,-11l0 -33 14 0 0 24c0,7 0,12 1,13 0,2 1,3 2,4 2,1 3,1 5,1 3,0 5,0 7,-1 2,-2 3,-3 3,-5 1,-2 1,-7 1,-14l0 -22 14 0 0 52 -13 0zm27 0l0 -71 13 0 0 71 -13 0zm51 -52l0 11 -10 0 0 21c0,4 0,6 1,7 0,1 0,1 1,2 0,0 1,1 2,1 1,0 3,-1 5,-2l2 11c-4,1 -7,2 -11,2 -2,0 -5,-1 -7,-1 -2,-1 -3,-2 -4,-4 -1,-1 -1,-3 -2,-5 0,-2 0,-5 0,-9l0 -23 -6 0 0 -11 6 0 0 -10 13 -8 0 18 10 0zm19 16l-12 -2c1,-5 4,-9 7,-11 3,-2 8,-4 15,-4 6,0 10,1 13,2 3,2 5,4 7,6 1,2 1,6 1,12l0 16c0,4 0,8 1,10 0,2 1,4 2,7l-13 0c0,-1 -1,-3 -1,-4 -1,-1 -1,-2 -1,-2 -2,2 -5,4 -7,5 -3,1 -6,2 -9,2 -5,0 -9,-2 -12,-4 -3,-3 -5,-7 -5,-11 0,-3 1,-6 3,-8 1,-2 3,-4 5,-5 3,-1 6,-2 11,-3 6,-2 11,-3 13,-4l0 -1c0,-3 0,-5 -2,-6 -1,-1 -3,-1 -7,-1 -2,0 -4,0 -6,1 -1,1 -2,3 -3,5zm18 11c-2,1 -4,1 -8,2 -4,1 -6,2 -7,3 -2,1 -3,2 -3,4 0,2 1,4 2,5 1,2 3,2 5,2 3,0 5,-1 7,-2 2,-1 3,-3 4,-5 0,-1 0,-3 0,-6l0 -3zm56 6l-12 0c-1,-1 -1,-2 -1,-3 0,-4 1,-7 2,-10 2,-2 4,-5 8,-8 4,-4 7,-6 7,-7 2,-1 2,-3 2,-5 0,-2 -1,-5 -3,-7 -2,-1 -5,-2 -8,-2 -4,0 -7,1 -9,3 -2,2 -4,5 -5,9l-12 -2c0,-6 2,-11 7,-15 5,-4 11,-6 18,-6 8,0 14,2 19,6 4,4 6,9 6,15 0,3 0,5 -2,8 -2,3 -5,6 -11,11 -3,2 -5,4 -5,6 -1,1 -1,4 -1,7zm-12 19l0 -14 12 0 0 14 -12 0z"/>
   <path class="fil3" d="M583 895c-62,62 -147,101 -241,101l0 0c-188,0 -342,-154 -342,-342l0 0c0,-95 40,-181 103,-244l480 485z"/>
   <path class="fil4" d="M302 510c81,0 146,46 146,103 0,58 -65,105 -146,105 -14,0 -29,-2 -42,-4 -19,24 -50,36 -86,34 28,-26 35,-43 37,-53 -34,-19 -55,-48 -55,-82 0,-57 65,-103 146,-103l0 0zm0 25c61,0 110,34 110,78 0,44 -49,80 -110,80 -62,0 -111,-36 -111,-80 0,-44 49,-78 111,-78z"/>
   <path class="fil4" d="M280 740c26,18 63,30 102,30 14,0 29,-2 42,-5 19,25 50,36 86,34 -28,-24 -35,-43 -37,-52 35,-19 55,-49 55,-81 0,-37 -26,-69 -66,-88 5,12 7,25 7,38 0,70 -69,127 -156,127 -12,0 -22,-1 -33,-3l0 0z"/>
  </g>
 </g>
</svg>
