<?xml version="1.0" encoding="UTF-8"?>
<!DOCTYPE svg PUBLIC "-//W3C//DTD SVG 1.1//EN" "http://www.w3.org/Graphics/SVG/1.1/DTD/svg11.dtd">
<!-- Creator: CorelDRAW X7 -->
<svg xmlns="http://www.w3.org/2000/svg" xml:space="preserve" width="500px" height="500px" version="1.1" style="shape-rendering:geometricPrecision; text-rendering:geometricPrecision; image-rendering:optimizeQuality; fill-rule:evenodd; clip-rule:evenodd"
viewBox="0 0 500 500"
 xmlns:xlink="http://www.w3.org/1999/xlink">
 <defs>
  <style type="text/css">
   <![CDATA[
    .fil0 {fill:#FFCC29}
   ]]>
  </style>
 </defs>
 <g id="Capa_x0020_1">
  <metadata id="CorelCorpID_0Corel-Layer"/>
  <path class="fil0" d="M185 492c55,16 122,8 173,-16 68,-32 113,-88 134,-160 20,-72 3,-149 -37,-210 -55,-84 -173,-125 -268,-98 -90,25 -152,87 -178,177 -38,133 45,269 176,307zm48 -461c-64,7 -106,30 -148,74 -7,7 -17,22 -23,32 -24,39 -35,86 -31,133 4,45 27,102 60,131 6,5 8,9 14,15 15,14 49,33 70,41 29,10 62,16 95,12 46,-4 102,-27 131,-59 16,-18 15,-9 38,-47 7,-12 13,-23 18,-37 21,-57 18,-126 -12,-179 -26,-47 -67,-85 -119,-104 -28,-10 -62,-16 -93,-12z"/>
  <g id="_636344552">
   <path class="fil0" d="M256 336l0 -20 -95 0 -1 -127c12,6 89,69 102,76 6,-4 40,-31 49,-38 9,-6 17,-12 25,-19 8,-6 18,-14 27,-20 0,16 -1,32 0,48 0,11 2,10 8,16 4,4 7,9 13,11l0 -105 -244 -1 0 179 116 0zm6 -98l40 -30c13,-10 26,-20 39,-31l-159 0c24,18 56,46 80,61z"/>
   <polygon class="fil0" points="108,305 128,305 129,145 352,145 352,125 108,124 "/>
   <path class="fil0" d="M351 292l23 23c-23,2 -70,1 -96,1l0 21 96 0c-2,4 -1,3 -5,6l-18 18c5,7 9,9 13,15 7,-3 9,-7 14,-12l25 -25c4,-5 9,-7 12,-15l-49 -47c-6,3 -12,9 -15,15z"/>
  </g>
 </g>
</svg>
