<?xml version="1.0" encoding="UTF-8"?>
<!DOCTYPE svg PUBLIC "-//W3C//DTD SVG 1.1//EN" "http://www.w3.org/Graphics/SVG/1.1/DTD/svg11.dtd">
<!-- Creator: CorelDRAW X7 -->
<svg xmlns="http://www.w3.org/2000/svg" xml:space="preserve" width="500px" height="500px" version="1.1" style="shape-rendering:geometricPrecision; text-rendering:geometricPrecision; image-rendering:optimizeQuality; fill-rule:evenodd; clip-rule:evenodd"
viewBox="0 0 500 500"
 xmlns:xlink="http://www.w3.org/1999/xlink">
 <defs>
  <style type="text/css">
   <![CDATA[
    .fil0 {fill:#FFCC29}
    .fil1 {fill:#FFCC29}
   ]]>
  </style>
 </defs>
 <g id="Capa_x0020_1">
  <metadata id="CorelCorpID_0Corel-Layer"/>
  <path class="fil0" d="M185 492c55,16 122,8 173,-16 68,-32 113,-88 134,-160 20,-72 3,-149 -37,-210 -55,-84 -173,-125 -268,-98 -90,25 -152,87 -178,177 -38,133 45,269 176,307zm48 -461c-64,7 -106,30 -148,74 -7,7 -17,22 -23,32 -24,39 -35,86 -31,133 4,45 27,102 60,131 6,5 8,9 14,15 15,14 49,33 70,41 29,10 62,16 95,12 46,-4 102,-27 131,-59 16,-18 15,-9 38,-47 7,-12 13,-23 18,-37 21,-57 18,-126 -12,-179 -26,-47 -67,-85 -119,-104 -28,-10 -62,-16 -93,-12z"/>
  <path class="fil1" d="M250 429l0 0c2,-2 8,-7 11,-9 16,-13 34,-29 48,-44 28,-31 59,-69 71,-116 6,-23 6,-43 1,-66 -3,-13 -13,-35 -21,-45 -1,-2 -2,-4 -3,-5 -6,-8 -12,-13 -18,-19 -13,-12 -32,-22 -48,-27 -13,-5 -21,-5 -29,-6l-1 -1 -21 0c-3,1 -20,2 -31,7 -17,6 -35,14 -47,27 -12,11 -12,10 -22,24 -9,11 -18,31 -21,45 -5,23 -5,44 1,67 7,28 20,53 36,75 5,7 11,15 16,21 3,4 6,6 9,10 3,4 6,6 9,10 12,13 34,33 49,44 2,1 9,6 11,8zm-8 -267c-20,3 -32,11 -41,22 -10,11 -17,29 -15,49 4,32 34,61 72,56 33,-4 60,-34 56,-71 -2,-19 -13,-33 -23,-41 -10,-10 -29,-18 -49,-15z"/>
 </g>
</svg>
