<?xml version="1.0" encoding="UTF-8"?>
<!DOCTYPE svg PUBLIC "-//W3C//DTD SVG 1.1//EN" "http://www.w3.org/Graphics/SVG/1.1/DTD/svg11.dtd">
<!-- Creator: CorelDRAW X7 -->
<svg xmlns="http://www.w3.org/2000/svg" xml:space="preserve" width="500px" height="500px" version="1.1" style="shape-rendering:geometricPrecision; text-rendering:geometricPrecision; image-rendering:optimizeQuality; fill-rule:evenodd; clip-rule:evenodd"
viewBox="0 0 500 500"
 xmlns:xlink="http://www.w3.org/1999/xlink">
 <defs>
  <style type="text/css">
   <![CDATA[
    .fil0 {fill:#FFCC29}
   ]]>
  </style>
 </defs>
 <g id="Capa_x0020_1">
  <metadata id="CorelCorpID_0Corel-Layer"/>
  <path class="fil0" d="M185 492c55,16 122,8 173,-16 68,-32 113,-88 134,-160 20,-72 3,-149 -37,-210 -55,-84 -173,-125 -268,-98 -90,25 -152,87 -178,177 -38,133 45,269 176,307zm48 -461c-64,7 -106,30 -148,74 -7,7 -17,22 -23,32 -24,39 -35,86 -31,133 4,45 27,102 60,131 6,5 8,9 14,15 15,14 49,33 70,41 29,10 62,16 95,12 46,-4 102,-27 131,-59 16,-18 15,-9 38,-47 7,-12 13,-23 18,-37 21,-57 18,-126 -12,-179 -26,-47 -67,-85 -119,-104 -28,-10 -62,-16 -93,-12z"/>
  <path class="fil0" d="M170 75c-24,6 -18,27 -18,49l0 264c-1,25 1,37 31,37 171,1 166,13 166,-49l0 -265c0,-25 -2,-37 -32,-37 -24,0 -133,-2 -147,1zm64 32c5,6 4,4 22,4 10,0 6,1 11,-4 -5,-5 1,-4 -23,-4 -5,0 -10,0 -10,4zm9 277c-1,0 -15,4 -8,18 4,6 13,12 23,7 18,-9 6,-35 -15,-25zm-76 -17l165 0 1 -234 -165 -1 -1 235z"/>
 </g>
</svg>
